<svg width="1200" height="760" viewBox="0 0 1200 760" fill="none" xmlns="http://www.w3.org/2000/svg">
<defs>
  <linearGradient id="g" x1="120" y1="80" x2="1040" y2="690" gradientUnits="userSpaceOnUse">
    <stop stop-color="#D7FF6C"/><stop offset=".48" stop-color="#49E5A2"/><stop offset="1" stop-color="#62D7FF"/>
  </linearGradient>
  <linearGradient id="panel" x1="0" y1="0" x2="0" y2="1"><stop stop-color="#20352F" stop-opacity=".92"/><stop offset="1" stop-color="#13221F" stop-opacity=".88"/></linearGradient>
  <filter id="glow" x="-40%" y="-40%" width="180%" height="180%"><feGaussianBlur stdDeviation="18" result="b"/><feMerge><feMergeNode in="b"/><feMergeNode in="SourceGraphic"/></feMerge></filter>
  <filter id="soft" x="-30%" y="-30%" width="160%" height="160%"><feGaussianBlur stdDeviation="45"/></filter>
</defs>
<rect width="1200" height="760" rx="38" fill="#0E1715"/>
<circle cx="875" cy="110" r="190" fill="#49E5A2" opacity=".08" filter="url(#soft)"/>
<circle cx="300" cy="640" r="160" fill="#62D7FF" opacity=".06" filter="url(#soft)"/>
<path d="M130 160H1070M130 285H1070M130 410H1070M130 535H1070M130 660H1070" stroke="#BFFFE3" stroke-opacity=".055"/>
<path d="M180 104V694M360 104V694M540 104V694M720 104V694M900 104V694M1080 104V694" stroke="#BFFFE3" stroke-opacity=".055"/>

<!-- journey rails -->
<path d="M164 182 C285 182 305 182 415 286 S620 392 738 286 S922 190 1036 190" stroke="url(#g)" stroke-width="3" stroke-linecap="round" stroke-dasharray="7 10" opacity=".7"/>
<path d="M164 574 C290 574 330 520 432 465 S610 430 716 502 S912 602 1036 560" stroke="url(#g)" stroke-width="2" stroke-linecap="round" stroke-dasharray="5 12" opacity=".28"/>

<!-- left context cards -->
<g>
  <rect x="86" y="112" width="250" height="136" rx="22" fill="url(#panel)" stroke="#BFFFE3" stroke-opacity=".16"/>
  <circle cx="114" cy="145" r="15" fill="#49E5A2" fill-opacity=".12" stroke="#49E5A2" stroke-opacity=".42"/>
  <path d="M108 145h12M114 139v12" stroke="#D7FF6C" stroke-width="2" stroke-linecap="round"/>
  <text x="144" y="142" fill="#F3FFF9" font-family="Inter,Arial" font-size="16" font-weight="650">Student context</text>
  <text x="108" y="174" fill="#A8BBB5" font-family="Inter,Arial" font-size="12">Goal · destination · course</text>
  <rect x="108" y="194" width="104" height="8" rx="4" fill="#49E5A2" fill-opacity=".28"/>
  <rect x="222" y="194" width="80" height="8" rx="4" fill="#BFFFE3" fill-opacity=".08"/>
</g>

<g>
  <rect x="86" y="510" width="250" height="136" rx="22" fill="url(#panel)" stroke="#BFFFE3" stroke-opacity=".16"/>
  <circle cx="114" cy="543" r="15" fill="#62D7FF" fill-opacity=".1" stroke="#62D7FF" stroke-opacity=".45"/>
  <path d="M107 547l5-7 5 4 6-8" stroke="#62D7FF" stroke-width="2" fill="none" stroke-linecap="round" stroke-linejoin="round"/>
  <text x="144" y="540" fill="#F3FFF9" font-family="Inter,Arial" font-size="16" font-weight="650">Career evidence</text>
  <text x="108" y="572" fill="#A8BBB5" font-family="Inter,Arial" font-size="12">CV · projects · network · roles</text>
  <rect x="108" y="592" width="68" height="8" rx="4" fill="#62D7FF" fill-opacity=".28"/>
  <rect x="184" y="592" width="118" height="8" rx="4" fill="#BFFFE3" fill-opacity=".08"/>
</g>

<!-- center agent -->
<g filter="url(#glow)">
  <circle cx="600" cy="348" r="104" fill="#49E5A2" fill-opacity=".07"/>
  <circle cx="600" cy="348" r="76" fill="#0D1715" stroke="url(#g)" stroke-width="2"/>
  <circle cx="600" cy="348" r="58" fill="#12221E" stroke="#D7FF6C" stroke-opacity=".18"/>
</g>
<circle cx="600" cy="348" r="27" fill="url(#g)" opacity=".18"/>
<path d="M588 349l9 9 17-20" stroke="#E9FFF5" stroke-width="4" stroke-linecap="round" stroke-linejoin="round"/>
<text x="600" y="286" text-anchor="middle" fill="#F3FFF9" font-family="Inter,Arial" font-size="13" font-weight="700" letter-spacing="2">ABROADSHIELD</text>
<text x="600" y="430" text-anchor="middle" fill="#A8BBB5" font-family="Inter,Arial" font-size="12">Reason · prioritize · prepare · act</text>

<!-- engine steps -->
<g>
  <rect x="805" y="112" width="305" height="136" rx="22" fill="url(#panel)" stroke="#BFFFE3" stroke-opacity=".16"/>
  <text x="833" y="145" fill="#9FE7C5" font-family="Inter,Arial" font-size="10" font-weight="700" letter-spacing="2">ENGINE 01</text>
  <text x="833" y="173" fill="#F3FFF9" font-family="Inter,Arial" font-size="16" font-weight="650">Map the journey</text>
  <text x="833" y="199" fill="#A8BBB5" font-family="Inter,Arial" font-size="12">Study decisions become a visible route.</text>
  <circle cx="1069" cy="145" r="8" fill="#49E5A2" fill-opacity=".3"/>
</g>
<g>
  <rect x="805" y="510" width="305" height="136" rx="22" fill="url(#panel)" stroke="#BFFFE3" stroke-opacity=".16"/>
  <text x="833" y="543" fill="#9FE7C5" font-family="Inter,Arial" font-size="10" font-weight="700" letter-spacing="2">ENGINE 02</text>
  <text x="833" y="571" fill="#F3FFF9" font-family="Inter,Arial" font-size="16" font-weight="650">Surface the next leverage</text>
  <text x="833" y="597" fill="#A8BBB5" font-family="Inter,Arial" font-size="12">Research and execution stay tied to context.</text>
  <circle cx="1069" cy="543" r="8" fill="#62D7FF" fill-opacity=".28"/>
</g>

<!-- connecting nodes -->
<g fill="#D7FF6C" stroke="#0E1715" stroke-width="4">
  <circle cx="360" cy="236" r="8"/><circle cx="741" cy="286" r="8"/><circle cx="360" cy="500" r="8"/><circle cx="744" cy="485" r="8"/>
</g>
<g fill="#A8BBB5" font-family="Inter,Arial" font-size="10">
  <text x="338" y="218">PROFILE</text><text x="750" y="271">PLAN</text><text x="338" y="483">EVIDENCE</text><text x="750" y="470">ACTION</text>
</g>
</svg>